<mxfile host="app.diagrams.net" agent="Mozilla/5.0 (Windows NT 10.0; Win64; x64) AppleWebKit/537.36 (KHTML, like Gecko) Chrome/131.0.0.0 Safari/537.36" version="25.0.3">
  <diagram name="Página-1" id="J3H7hJgWwUL86dLht0pT">
    <mxGraphModel dx="10387" dy="5373" grid="1" gridSize="10" guides="1" tooltips="1" connect="1" arrows="1" fold="1" page="1" pageScale="1" pageWidth="827" pageHeight="1169" math="0" shadow="0">
      <root>
        <mxCell id="0" />
        <mxCell id="1" parent="0" />
        <mxCell id="T-pI5GcoOm6-YUTAonbB-2" value="Inicio" style="ellipse;whiteSpace=wrap;html=1;labelBackgroundColor=none;fontStyle=1;fillColor=#dae8fc;strokeColor=#6c8ebf;fontColor=#000000;" vertex="1" parent="1">
          <mxGeometry x="170" y="20" width="120" height="80" as="geometry" />
        </mxCell>
        <mxCell id="T-pI5GcoOm6-YUTAonbB-3" value="Idade" style="rounded=0;whiteSpace=wrap;html=1;fontStyle=1;fillColor=#dae8fc;strokeColor=#6c8ebf;fontColor=#000000;" vertex="1" parent="1">
          <mxGeometry x="170" y="150" width="120" height="60" as="geometry" />
        </mxCell>
        <mxCell id="T-pI5GcoOm6-YUTAonbB-4" value="Idade &amp;gt;= 0 e &amp;lt;=150?" style="rhombus;whiteSpace=wrap;html=1;fontStyle=1;fillColor=#dae8fc;strokeColor=#6c8ebf;fontColor=#000000;" vertex="1" parent="1">
          <mxGeometry x="190" y="250" width="80" height="80" as="geometry" />
        </mxCell>
        <mxCell id="T-pI5GcoOm6-YUTAonbB-5" value="Idade válida" style="rounded=0;whiteSpace=wrap;html=1;fontStyle=1;fillColor=#dae8fc;strokeColor=#6c8ebf;fontColor=#000000;" vertex="1" parent="1">
          <mxGeometry x="340" y="319" width="120" height="60" as="geometry" />
        </mxCell>
        <mxCell id="T-pI5GcoOm6-YUTAonbB-81" style="edgeStyle=orthogonalEdgeStyle;rounded=0;orthogonalLoop=1;jettySize=auto;html=1;exitX=0;exitY=0.5;exitDx=0;exitDy=0;entryX=0;entryY=0.5;entryDx=0;entryDy=0;strokeColor=#736CA8;fontFamily=Helvetica;fontSize=12;fontColor=#1A1A1A;" edge="1" parent="1" source="T-pI5GcoOm6-YUTAonbB-6" target="T-pI5GcoOm6-YUTAonbB-3">
          <mxGeometry relative="1" as="geometry" />
        </mxCell>
        <mxCell id="T-pI5GcoOm6-YUTAonbB-6" value="Idade inválida" style="rounded=0;whiteSpace=wrap;html=1;fontStyle=1;fillColor=#dae8fc;strokeColor=#6c8ebf;fontColor=#000000;" vertex="1" parent="1">
          <mxGeometry x="20" y="319" width="120" height="60" as="geometry" />
        </mxCell>
        <mxCell id="T-pI5GcoOm6-YUTAonbB-8" value="" style="endArrow=classic;html=1;rounded=0;fontColor=#000000;entryX=1;entryY=0.35;entryDx=0;entryDy=0;exitX=0.5;exitY=1;exitDx=0;exitDy=0;fontStyle=1;fillColor=#dae8fc;strokeColor=#6c8ebf;entryPerimeter=0;" edge="1" parent="1" source="T-pI5GcoOm6-YUTAonbB-4" target="T-pI5GcoOm6-YUTAonbB-6">
          <mxGeometry width="50" height="50" relative="1" as="geometry">
            <mxPoint x="10" y="250" as="sourcePoint" />
            <mxPoint x="60" y="200" as="targetPoint" />
            <Array as="points">
              <mxPoint x="230" y="340" />
            </Array>
          </mxGeometry>
        </mxCell>
        <mxCell id="T-pI5GcoOm6-YUTAonbB-9" value="" style="endArrow=classic;html=1;rounded=0;fontColor=#000000;exitX=1;exitY=0.5;exitDx=0;exitDy=0;entryX=0.5;entryY=0;entryDx=0;entryDy=0;fontStyle=1;fillColor=#dae8fc;strokeColor=#6c8ebf;" edge="1" parent="1" source="T-pI5GcoOm6-YUTAonbB-4" target="T-pI5GcoOm6-YUTAonbB-5">
          <mxGeometry width="50" height="50" relative="1" as="geometry">
            <mxPoint x="340" y="280" as="sourcePoint" />
            <mxPoint x="390" y="230" as="targetPoint" />
            <Array as="points">
              <mxPoint x="400" y="290" />
            </Array>
          </mxGeometry>
        </mxCell>
        <mxCell id="T-pI5GcoOm6-YUTAonbB-10" value="" style="endArrow=classic;html=1;rounded=0;fontColor=#000000;exitX=0.5;exitY=1;exitDx=0;exitDy=0;entryX=0.5;entryY=0;entryDx=0;entryDy=0;fontStyle=1;fillColor=#dae8fc;strokeColor=#6c8ebf;" edge="1" parent="1" source="T-pI5GcoOm6-YUTAonbB-3" target="T-pI5GcoOm6-YUTAonbB-4">
          <mxGeometry width="50" height="50" relative="1" as="geometry">
            <mxPoint x="80" y="220" as="sourcePoint" />
            <mxPoint x="130" y="170" as="targetPoint" />
          </mxGeometry>
        </mxCell>
        <mxCell id="T-pI5GcoOm6-YUTAonbB-11" value="" style="endArrow=classic;html=1;rounded=0;fontColor=#000000;exitX=0.5;exitY=1;exitDx=0;exitDy=0;entryX=0.5;entryY=0;entryDx=0;entryDy=0;fontStyle=1;fillColor=#dae8fc;strokeColor=#6c8ebf;" edge="1" parent="1" source="T-pI5GcoOm6-YUTAonbB-2" target="T-pI5GcoOm6-YUTAonbB-3">
          <mxGeometry width="50" height="50" relative="1" as="geometry">
            <mxPoint x="60" y="190" as="sourcePoint" />
            <mxPoint x="110" y="140" as="targetPoint" />
          </mxGeometry>
        </mxCell>
        <mxCell id="T-pI5GcoOm6-YUTAonbB-12" value="Fim" style="ellipse;whiteSpace=wrap;html=1;labelBackgroundColor=none;fontStyle=1;fillColor=#dae8fc;strokeColor=#6c8ebf;fontColor=#000000;" vertex="1" parent="1">
          <mxGeometry x="170" y="440" width="120" height="80" as="geometry" />
        </mxCell>
        <mxCell id="T-pI5GcoOm6-YUTAonbB-14" value="" style="endArrow=classic;html=1;rounded=0;fontColor=#000000;exitX=0.5;exitY=1;exitDx=0;exitDy=0;entryX=1;entryY=0.5;entryDx=0;entryDy=0;fontStyle=1;fillColor=#dae8fc;strokeColor=#6c8ebf;" edge="1" parent="1" source="T-pI5GcoOm6-YUTAonbB-5" target="T-pI5GcoOm6-YUTAonbB-12">
          <mxGeometry width="50" height="50" relative="1" as="geometry">
            <mxPoint x="400" y="410" as="sourcePoint" />
            <mxPoint x="420" y="420" as="targetPoint" />
            <Array as="points">
              <mxPoint x="400" y="480" />
            </Array>
          </mxGeometry>
        </mxCell>
        <mxCell id="T-pI5GcoOm6-YUTAonbB-15" value="Não" style="text;html=1;fontSize=24;fontStyle=1;verticalAlign=middle;align=center;" vertex="1" parent="1">
          <mxGeometry x="140" y="340" width="100" height="40" as="geometry" />
        </mxCell>
        <mxCell id="T-pI5GcoOm6-YUTAonbB-16" value="Sim" style="text;html=1;fontSize=24;fontStyle=1;verticalAlign=middle;align=center;" vertex="1" parent="1">
          <mxGeometry x="300" y="250" width="100" height="40" as="geometry" />
        </mxCell>
        <mxCell id="T-pI5GcoOm6-YUTAonbB-17" value="QUESTÃO 05" style="text;strokeColor=none;fillColor=none;html=1;fontSize=24;fontStyle=1;verticalAlign=middle;align=center;fontColor=#1A1A1A;" vertex="1" parent="1">
          <mxGeometry x="370" y="70" width="100" height="40" as="geometry" />
        </mxCell>
        <mxCell id="T-pI5GcoOm6-YUTAonbB-25" value="" style="edgeStyle=orthogonalEdgeStyle;rounded=0;orthogonalLoop=1;jettySize=auto;html=1;strokeColor=#9673a6;fontColor=#1A1A1A;fillColor=#e1d5e7;" edge="1" parent="1" source="T-pI5GcoOm6-YUTAonbB-18" target="T-pI5GcoOm6-YUTAonbB-19">
          <mxGeometry relative="1" as="geometry" />
        </mxCell>
        <mxCell id="T-pI5GcoOm6-YUTAonbB-18" value="Início" style="ellipse;whiteSpace=wrap;html=1;strokeColor=#9673a6;fillColor=#e1d5e7;" vertex="1" parent="1">
          <mxGeometry x="890" y="140" width="120" height="80" as="geometry" />
        </mxCell>
        <mxCell id="T-pI5GcoOm6-YUTAonbB-30" style="edgeStyle=orthogonalEdgeStyle;rounded=0;orthogonalLoop=1;jettySize=auto;html=1;entryX=0;entryY=0.5;entryDx=0;entryDy=0;strokeColor=#9673a6;fontColor=#1A1A1A;exitX=1;exitY=0.5;exitDx=0;exitDy=0;fillColor=#e1d5e7;" edge="1" parent="1" source="T-pI5GcoOm6-YUTAonbB-19" target="T-pI5GcoOm6-YUTAonbB-21">
          <mxGeometry relative="1" as="geometry">
            <mxPoint x="1080" y="450" as="sourcePoint" />
          </mxGeometry>
        </mxCell>
        <mxCell id="T-pI5GcoOm6-YUTAonbB-31" style="edgeStyle=orthogonalEdgeStyle;rounded=0;orthogonalLoop=1;jettySize=auto;html=1;exitX=1;exitY=0.5;exitDx=0;exitDy=0;entryX=0;entryY=0.5;entryDx=0;entryDy=0;strokeColor=#9673a6;fontColor=#1A1A1A;fillColor=#e1d5e7;" edge="1" parent="1" source="T-pI5GcoOm6-YUTAonbB-19" target="T-pI5GcoOm6-YUTAonbB-29">
          <mxGeometry relative="1" as="geometry" />
        </mxCell>
        <mxCell id="T-pI5GcoOm6-YUTAonbB-19" value="Idade" style="rounded=0;whiteSpace=wrap;html=1;strokeColor=#9673a6;fillColor=#e1d5e7;" vertex="1" parent="1">
          <mxGeometry x="890" y="270" width="120" height="60" as="geometry" />
        </mxCell>
        <mxCell id="T-pI5GcoOm6-YUTAonbB-35" style="edgeStyle=orthogonalEdgeStyle;rounded=0;orthogonalLoop=1;jettySize=auto;html=1;exitX=1;exitY=0.5;exitDx=0;exitDy=0;entryX=0;entryY=0.5;entryDx=0;entryDy=0;strokeColor=#9673a6;fontColor=#1A1A1A;fillColor=#e1d5e7;" edge="1" parent="1" source="T-pI5GcoOm6-YUTAonbB-21" target="T-pI5GcoOm6-YUTAonbB-32">
          <mxGeometry relative="1" as="geometry" />
        </mxCell>
        <mxCell id="T-pI5GcoOm6-YUTAonbB-21" value="Cliente &amp;lt;= 6 ou &amp;gt;=59 anos&lt;div&gt;de idade&lt;/div&gt;" style="rhombus;whiteSpace=wrap;html=1;strokeColor=#9673a6;fillColor=#e1d5e7;" vertex="1" parent="1">
          <mxGeometry x="1130" y="125" width="170" height="170" as="geometry" />
        </mxCell>
        <mxCell id="T-pI5GcoOm6-YUTAonbB-34" style="edgeStyle=orthogonalEdgeStyle;rounded=0;orthogonalLoop=1;jettySize=auto;html=1;exitX=1;exitY=0.5;exitDx=0;exitDy=0;strokeColor=#9673a6;fontColor=#1A1A1A;fillColor=#e1d5e7;" edge="1" parent="1" source="T-pI5GcoOm6-YUTAonbB-29" target="T-pI5GcoOm6-YUTAonbB-33">
          <mxGeometry relative="1" as="geometry" />
        </mxCell>
        <mxCell id="T-pI5GcoOm6-YUTAonbB-29" value="Cliente &amp;gt; 6 ou &amp;lt; 59 anos&lt;div&gt;de idade&lt;/div&gt;" style="rhombus;whiteSpace=wrap;html=1;strokeColor=#9673a6;fillColor=#e1d5e7;" vertex="1" parent="1">
          <mxGeometry x="1130" y="305" width="170" height="170" as="geometry" />
        </mxCell>
        <mxCell id="T-pI5GcoOm6-YUTAonbB-37" style="edgeStyle=orthogonalEdgeStyle;rounded=0;orthogonalLoop=1;jettySize=auto;html=1;exitX=1;exitY=0.5;exitDx=0;exitDy=0;entryX=0.5;entryY=0;entryDx=0;entryDy=0;strokeColor=#736CA8;fontColor=#1A1A1A;" edge="1" parent="1" source="T-pI5GcoOm6-YUTAonbB-32" target="T-pI5GcoOm6-YUTAonbB-36">
          <mxGeometry relative="1" as="geometry" />
        </mxCell>
        <mxCell id="T-pI5GcoOm6-YUTAonbB-32" value="Tem gratuidade" style="rounded=0;whiteSpace=wrap;html=1;strokeColor=#9673a6;fillColor=#e1d5e7;" vertex="1" parent="1">
          <mxGeometry x="1340" y="180" width="120" height="60" as="geometry" />
        </mxCell>
        <mxCell id="T-pI5GcoOm6-YUTAonbB-33" value="Sem gratuidade" style="rounded=0;whiteSpace=wrap;html=1;strokeColor=#9673a6;fillColor=#e1d5e7;" vertex="1" parent="1">
          <mxGeometry x="1340" y="360" width="120" height="60" as="geometry" />
        </mxCell>
        <mxCell id="T-pI5GcoOm6-YUTAonbB-36" value="Fim" style="ellipse;whiteSpace=wrap;html=1;labelBackgroundColor=none;fontStyle=1;fillColor=#e1d5e7;strokeColor=#9673a6;" vertex="1" parent="1">
          <mxGeometry x="1500" y="260" width="120" height="80" as="geometry" />
        </mxCell>
        <mxCell id="T-pI5GcoOm6-YUTAonbB-38" style="edgeStyle=orthogonalEdgeStyle;rounded=0;orthogonalLoop=1;jettySize=auto;html=1;exitX=1;exitY=0.5;exitDx=0;exitDy=0;entryX=0.5;entryY=1;entryDx=0;entryDy=0;strokeColor=#736CA8;fontColor=#1A1A1A;" edge="1" parent="1" source="T-pI5GcoOm6-YUTAonbB-33" target="T-pI5GcoOm6-YUTAonbB-36">
          <mxGeometry relative="1" as="geometry" />
        </mxCell>
        <mxCell id="T-pI5GcoOm6-YUTAonbB-39" value="QUESTÃO 07" style="text;strokeColor=none;fillColor=none;html=1;fontSize=24;fontStyle=1;verticalAlign=middle;align=center;fontColor=#1A1A1A;" vertex="1" parent="1">
          <mxGeometry x="1350" y="40" width="100" height="40" as="geometry" />
        </mxCell>
        <mxCell id="T-pI5GcoOm6-YUTAonbB-57" style="edgeStyle=orthogonalEdgeStyle;rounded=0;orthogonalLoop=1;jettySize=auto;html=1;exitX=0.5;exitY=1;exitDx=0;exitDy=0;entryX=0.5;entryY=0;entryDx=0;entryDy=0;strokeColor=#d79b00;fontFamily=Helvetica;fontSize=12;fontColor=#1A1A1A;fillColor=#ffe6cc;" edge="1" parent="1" source="T-pI5GcoOm6-YUTAonbB-40" target="T-pI5GcoOm6-YUTAonbB-41">
          <mxGeometry relative="1" as="geometry" />
        </mxCell>
        <mxCell id="T-pI5GcoOm6-YUTAonbB-40" value="Início" style="ellipse;whiteSpace=wrap;html=1;strokeColor=#d79b00;fillColor=#ffe6cc;" vertex="1" parent="1">
          <mxGeometry x="660" y="585" width="120" height="80" as="geometry" />
        </mxCell>
        <mxCell id="T-pI5GcoOm6-YUTAonbB-56" style="edgeStyle=orthogonalEdgeStyle;rounded=0;orthogonalLoop=1;jettySize=auto;html=1;exitX=0.5;exitY=1;exitDx=0;exitDy=0;entryX=0.5;entryY=0;entryDx=0;entryDy=0;strokeColor=#d79b00;fontFamily=Helvetica;fontSize=12;fontColor=#1A1A1A;fillColor=#ffe6cc;" edge="1" parent="1" source="T-pI5GcoOm6-YUTAonbB-41" target="T-pI5GcoOm6-YUTAonbB-42">
          <mxGeometry relative="1" as="geometry" />
        </mxCell>
        <mxCell id="T-pI5GcoOm6-YUTAonbB-41" value="Nota 01" style="rounded=0;whiteSpace=wrap;html=1;strokeColor=#d79b00;fillColor=#ffe6cc;" vertex="1" parent="1">
          <mxGeometry x="660" y="700" width="120" height="60" as="geometry" />
        </mxCell>
        <mxCell id="T-pI5GcoOm6-YUTAonbB-55" style="edgeStyle=orthogonalEdgeStyle;rounded=0;orthogonalLoop=1;jettySize=auto;html=1;exitX=0.5;exitY=1;exitDx=0;exitDy=0;entryX=0.5;entryY=0;entryDx=0;entryDy=0;strokeColor=#d79b00;fontFamily=Helvetica;fontSize=12;fontColor=#1A1A1A;fillColor=#ffe6cc;" edge="1" parent="1" source="T-pI5GcoOm6-YUTAonbB-42" target="T-pI5GcoOm6-YUTAonbB-46">
          <mxGeometry relative="1" as="geometry" />
        </mxCell>
        <mxCell id="T-pI5GcoOm6-YUTAonbB-42" value="Nota 02" style="rounded=0;whiteSpace=wrap;html=1;strokeColor=#d79b00;fillColor=#ffe6cc;" vertex="1" parent="1">
          <mxGeometry x="660" y="790" width="120" height="60" as="geometry" />
        </mxCell>
        <mxCell id="T-pI5GcoOm6-YUTAonbB-49" style="edgeStyle=orthogonalEdgeStyle;rounded=0;orthogonalLoop=1;jettySize=auto;html=1;exitX=0.5;exitY=1;exitDx=0;exitDy=0;entryX=0.5;entryY=0;entryDx=0;entryDy=0;strokeColor=#d79b00;fontFamily=Helvetica;fontSize=12;fontColor=#1A1A1A;fillColor=#ffe6cc;" edge="1" parent="1" source="T-pI5GcoOm6-YUTAonbB-44" target="T-pI5GcoOm6-YUTAonbB-47">
          <mxGeometry relative="1" as="geometry">
            <Array as="points">
              <mxPoint x="720" y="1060" />
              <mxPoint x="860" y="1060" />
            </Array>
          </mxGeometry>
        </mxCell>
        <mxCell id="T-pI5GcoOm6-YUTAonbB-50" style="edgeStyle=orthogonalEdgeStyle;rounded=0;orthogonalLoop=1;jettySize=auto;html=1;exitX=0.5;exitY=1;exitDx=0;exitDy=0;entryX=0.5;entryY=0;entryDx=0;entryDy=0;strokeColor=#d79b00;fontFamily=Helvetica;fontSize=12;fontColor=#1A1A1A;fillColor=#ffe6cc;" edge="1" parent="1" source="T-pI5GcoOm6-YUTAonbB-44" target="T-pI5GcoOm6-YUTAonbB-45">
          <mxGeometry relative="1" as="geometry">
            <Array as="points">
              <mxPoint x="720" y="1060" />
              <mxPoint x="580" y="1060" />
            </Array>
          </mxGeometry>
        </mxCell>
        <mxCell id="T-pI5GcoOm6-YUTAonbB-44" value="Média &amp;gt;= 7" style="rhombus;whiteSpace=wrap;html=1;strokeColor=#d79b00;fillColor=#ffe6cc;" vertex="1" parent="1">
          <mxGeometry x="680" y="970" width="80" height="80" as="geometry" />
        </mxCell>
        <mxCell id="T-pI5GcoOm6-YUTAonbB-59" style="edgeStyle=orthogonalEdgeStyle;rounded=0;orthogonalLoop=1;jettySize=auto;html=1;exitX=0.5;exitY=1;exitDx=0;exitDy=0;entryX=0;entryY=0.5;entryDx=0;entryDy=0;strokeColor=#d79b00;fontFamily=Helvetica;fontSize=12;fontColor=#1A1A1A;fillColor=#ffe6cc;" edge="1" parent="1" source="T-pI5GcoOm6-YUTAonbB-45" target="T-pI5GcoOm6-YUTAonbB-48">
          <mxGeometry relative="1" as="geometry" />
        </mxCell>
        <mxCell id="T-pI5GcoOm6-YUTAonbB-45" value="Reprovado" style="rounded=0;whiteSpace=wrap;html=1;strokeColor=#d79b00;fillColor=#ffe6cc;" vertex="1" parent="1">
          <mxGeometry x="520" y="1080" width="120" height="60" as="geometry" />
        </mxCell>
        <mxCell id="T-pI5GcoOm6-YUTAonbB-54" style="edgeStyle=orthogonalEdgeStyle;rounded=0;orthogonalLoop=1;jettySize=auto;html=1;exitX=0.5;exitY=1;exitDx=0;exitDy=0;entryX=0.5;entryY=0;entryDx=0;entryDy=0;strokeColor=#d79b00;fontFamily=Helvetica;fontSize=12;fontColor=#1A1A1A;fillColor=#ffe6cc;" edge="1" parent="1" source="T-pI5GcoOm6-YUTAonbB-46" target="T-pI5GcoOm6-YUTAonbB-44">
          <mxGeometry relative="1" as="geometry" />
        </mxCell>
        <mxCell id="T-pI5GcoOm6-YUTAonbB-46" value="Média = Nota 01 + Nota02&lt;div&gt;&amp;nbsp; &amp;nbsp; &amp;nbsp; &amp;nbsp; &amp;nbsp; &amp;nbsp; &amp;nbsp;------------------------&lt;/div&gt;&lt;div&gt;&amp;nbsp; &amp;nbsp; &amp;nbsp; &amp;nbsp; &amp;nbsp; &amp;nbsp; &amp;nbsp; &amp;nbsp;2&lt;/div&gt;" style="shape=parallelogram;perimeter=parallelogramPerimeter;whiteSpace=wrap;html=1;fixedSize=1;rounded=0;strokeColor=#d79b00;align=center;verticalAlign=middle;fontFamily=Helvetica;fontSize=12;fillColor=#ffe6cc;size=10;" vertex="1" parent="1">
          <mxGeometry x="630" y="880" width="180" height="60" as="geometry" />
        </mxCell>
        <mxCell id="T-pI5GcoOm6-YUTAonbB-47" value="Aprovado" style="rounded=0;whiteSpace=wrap;html=1;strokeColor=#d79b00;fillColor=#ffe6cc;" vertex="1" parent="1">
          <mxGeometry x="800" y="1080" width="120" height="60" as="geometry" />
        </mxCell>
        <mxCell id="T-pI5GcoOm6-YUTAonbB-48" value="Fim" style="ellipse;whiteSpace=wrap;html=1;labelBackgroundColor=none;fontStyle=1;fillColor=#ffe6cc;strokeColor=#d79b00;" vertex="1" parent="1">
          <mxGeometry x="660" y="1190" width="120" height="80" as="geometry" />
        </mxCell>
        <mxCell id="T-pI5GcoOm6-YUTAonbB-51" value="Sim" style="text;html=1;fontSize=24;fontStyle=1;verticalAlign=middle;align=center;" vertex="1" parent="1">
          <mxGeometry x="810" y="1020" width="100" height="40" as="geometry" />
        </mxCell>
        <mxCell id="T-pI5GcoOm6-YUTAonbB-52" value="Não" style="text;html=1;fontSize=24;fontStyle=1;verticalAlign=middle;align=center;" vertex="1" parent="1">
          <mxGeometry x="530" y="1020" width="100" height="40" as="geometry" />
        </mxCell>
        <mxCell id="T-pI5GcoOm6-YUTAonbB-58" style="edgeStyle=orthogonalEdgeStyle;rounded=0;orthogonalLoop=1;jettySize=auto;html=1;exitX=0.5;exitY=1;exitDx=0;exitDy=0;entryX=1;entryY=0.5;entryDx=0;entryDy=0;strokeColor=#d79b00;fontFamily=Helvetica;fontSize=12;fontColor=#1A1A1A;fillColor=#ffe6cc;" edge="1" parent="1" source="T-pI5GcoOm6-YUTAonbB-47" target="T-pI5GcoOm6-YUTAonbB-48">
          <mxGeometry relative="1" as="geometry" />
        </mxCell>
        <mxCell id="T-pI5GcoOm6-YUTAonbB-60" value="QUESTÃO 04" style="text;strokeColor=none;fillColor=none;html=1;fontSize=24;fontStyle=1;verticalAlign=middle;align=center;fontColor=#1A1A1A;" vertex="1" parent="1">
          <mxGeometry x="850" y="585" width="100" height="40" as="geometry" />
        </mxCell>
        <mxCell id="T-pI5GcoOm6-YUTAonbB-72" style="edgeStyle=orthogonalEdgeStyle;rounded=0;orthogonalLoop=1;jettySize=auto;html=1;exitX=0.5;exitY=1;exitDx=0;exitDy=0;entryX=0.5;entryY=0;entryDx=0;entryDy=0;strokeColor=#3A5431;fontFamily=Helvetica;fontSize=12;fontColor=#1A1A1A;fillColor=#6d8764;" edge="1" parent="1" source="T-pI5GcoOm6-YUTAonbB-61" target="T-pI5GcoOm6-YUTAonbB-62">
          <mxGeometry relative="1" as="geometry" />
        </mxCell>
        <mxCell id="T-pI5GcoOm6-YUTAonbB-61" value="Início" style="ellipse;whiteSpace=wrap;html=1;strokeColor=#3A5431;fillColor=#6d8764;fontColor=#ffffff;" vertex="1" parent="1">
          <mxGeometry x="1440" y="770" width="120" height="80" as="geometry" />
        </mxCell>
        <mxCell id="T-pI5GcoOm6-YUTAonbB-73" style="edgeStyle=orthogonalEdgeStyle;rounded=0;orthogonalLoop=1;jettySize=auto;html=1;exitX=0.5;exitY=1;exitDx=0;exitDy=0;strokeColor=#3A5431;fontFamily=Helvetica;fontSize=12;fontColor=#1A1A1A;fillColor=#6d8764;" edge="1" parent="1" source="T-pI5GcoOm6-YUTAonbB-62" target="T-pI5GcoOm6-YUTAonbB-64">
          <mxGeometry relative="1" as="geometry" />
        </mxCell>
        <mxCell id="T-pI5GcoOm6-YUTAonbB-62" value="Número" style="rounded=0;whiteSpace=wrap;html=1;strokeColor=#3A5431;align=center;verticalAlign=middle;fontFamily=Helvetica;fontSize=12;fontColor=#ffffff;fillColor=#6d8764;" vertex="1" parent="1">
          <mxGeometry x="1440" y="900" width="120" height="60" as="geometry" />
        </mxCell>
        <mxCell id="T-pI5GcoOm6-YUTAonbB-68" style="edgeStyle=orthogonalEdgeStyle;rounded=0;orthogonalLoop=1;jettySize=auto;html=1;exitX=1;exitY=0.5;exitDx=0;exitDy=0;strokeColor=#3A5431;fontFamily=Helvetica;fontSize=12;fontColor=#1A1A1A;fillColor=#6d8764;" edge="1" parent="1" source="T-pI5GcoOm6-YUTAonbB-64" target="T-pI5GcoOm6-YUTAonbB-65">
          <mxGeometry relative="1" as="geometry" />
        </mxCell>
        <mxCell id="T-pI5GcoOm6-YUTAonbB-69" style="edgeStyle=orthogonalEdgeStyle;rounded=0;orthogonalLoop=1;jettySize=auto;html=1;exitX=0.5;exitY=1;exitDx=0;exitDy=0;entryX=0.5;entryY=0;entryDx=0;entryDy=0;strokeColor=#3A5431;fontFamily=Helvetica;fontSize=12;fontColor=#1A1A1A;fillColor=#6d8764;" edge="1" parent="1" source="T-pI5GcoOm6-YUTAonbB-64" target="T-pI5GcoOm6-YUTAonbB-66">
          <mxGeometry relative="1" as="geometry" />
        </mxCell>
        <mxCell id="T-pI5GcoOm6-YUTAonbB-64" value="O ultimo ou único algarismo deste número é 1, 3, 5, 7 ou 9?" style="rhombus;whiteSpace=wrap;html=1;rounded=0;strokeColor=#3A5431;align=center;verticalAlign=middle;fontFamily=Helvetica;fontSize=12;fontColor=#ffffff;fillColor=#6d8764;" vertex="1" parent="1">
          <mxGeometry x="1430" y="1010" width="140" height="130" as="geometry" />
        </mxCell>
        <mxCell id="T-pI5GcoOm6-YUTAonbB-71" style="edgeStyle=orthogonalEdgeStyle;rounded=0;orthogonalLoop=1;jettySize=auto;html=1;exitX=0.5;exitY=1;exitDx=0;exitDy=0;strokeColor=#3A5431;fontFamily=Helvetica;fontSize=12;fontColor=#1A1A1A;fillColor=#6d8764;" edge="1" parent="1" source="T-pI5GcoOm6-YUTAonbB-65" target="T-pI5GcoOm6-YUTAonbB-67">
          <mxGeometry relative="1" as="geometry" />
        </mxCell>
        <mxCell id="T-pI5GcoOm6-YUTAonbB-65" value="Seu número é ímpar" style="rounded=0;whiteSpace=wrap;html=1;strokeColor=#3A5431;align=center;verticalAlign=middle;fontFamily=Helvetica;fontSize=12;fontColor=#ffffff;fillColor=#6d8764;" vertex="1" parent="1">
          <mxGeometry x="1690" y="1045" width="120" height="60" as="geometry" />
        </mxCell>
        <mxCell id="T-pI5GcoOm6-YUTAonbB-70" style="edgeStyle=orthogonalEdgeStyle;rounded=0;orthogonalLoop=1;jettySize=auto;html=1;exitX=1;exitY=0.5;exitDx=0;exitDy=0;strokeColor=#3A5431;fontFamily=Helvetica;fontSize=12;fontColor=#1A1A1A;entryX=0.007;entryY=0.633;entryDx=0;entryDy=0;entryPerimeter=0;fillColor=#6d8764;" edge="1" parent="1" source="T-pI5GcoOm6-YUTAonbB-66" target="T-pI5GcoOm6-YUTAonbB-67">
          <mxGeometry relative="1" as="geometry">
            <mxPoint x="1680" y="1279.8461538461538" as="targetPoint" />
          </mxGeometry>
        </mxCell>
        <mxCell id="T-pI5GcoOm6-YUTAonbB-66" value="Seu número é par" style="rounded=0;whiteSpace=wrap;html=1;strokeColor=#3A5431;align=center;verticalAlign=middle;fontFamily=Helvetica;fontSize=12;fontColor=#ffffff;fillColor=#6d8764;" vertex="1" parent="1">
          <mxGeometry x="1440" y="1250" width="120" height="60" as="geometry" />
        </mxCell>
        <mxCell id="T-pI5GcoOm6-YUTAonbB-67" value="Fim" style="ellipse;whiteSpace=wrap;html=1;labelBackgroundColor=none;fontStyle=1;fillColor=#6d8764;strokeColor=#3A5431;fontColor=#ffffff;" vertex="1" parent="1">
          <mxGeometry x="1690" y="1230" width="120" height="80" as="geometry" />
        </mxCell>
        <mxCell id="T-pI5GcoOm6-YUTAonbB-74" value="QUESTÃO 06" style="text;strokeColor=none;fillColor=none;html=1;fontSize=24;fontStyle=1;verticalAlign=middle;align=center;fontColor=#1A1A1A;" vertex="1" parent="1">
          <mxGeometry x="1680" y="840" width="100" height="40" as="geometry" />
        </mxCell>
        <mxCell id="T-pI5GcoOm6-YUTAonbB-75" value="Sim" style="text;html=1;fontSize=24;fontStyle=1;verticalAlign=middle;align=center;" vertex="1" parent="1">
          <mxGeometry x="1580" y="1030" width="100" height="40" as="geometry" />
        </mxCell>
        <mxCell id="T-pI5GcoOm6-YUTAonbB-76" value="Não" style="text;html=1;fontSize=24;fontStyle=1;verticalAlign=middle;align=center;" vertex="1" parent="1">
          <mxGeometry x="1390" y="1160" width="100" height="40" as="geometry" />
        </mxCell>
        <mxCell id="T-pI5GcoOm6-YUTAonbB-85" style="edgeStyle=orthogonalEdgeStyle;rounded=0;orthogonalLoop=1;jettySize=auto;html=1;exitX=0.5;exitY=1;exitDx=0;exitDy=0;entryX=0.5;entryY=0;entryDx=0;entryDy=0;strokeColor=#432D57;fontFamily=Helvetica;fontSize=12;fontColor=#1A1A1A;fillColor=#76608a;" edge="1" parent="1" source="T-pI5GcoOm6-YUTAonbB-77" target="T-pI5GcoOm6-YUTAonbB-78">
          <mxGeometry relative="1" as="geometry" />
        </mxCell>
        <mxCell id="T-pI5GcoOm6-YUTAonbB-77" value="Início" style="ellipse;whiteSpace=wrap;html=1;strokeColor=#432D57;fillColor=#76608a;fontColor=#ffffff;" vertex="1" parent="1">
          <mxGeometry x="450" y="1640" width="120" height="80" as="geometry" />
        </mxCell>
        <mxCell id="T-pI5GcoOm6-YUTAonbB-86" style="edgeStyle=orthogonalEdgeStyle;rounded=0;orthogonalLoop=1;jettySize=auto;html=1;exitX=0.5;exitY=1;exitDx=0;exitDy=0;entryX=0.5;entryY=0;entryDx=0;entryDy=0;strokeColor=#432D57;fontFamily=Helvetica;fontSize=12;fontColor=#1A1A1A;fillColor=#76608a;" edge="1" parent="1" source="T-pI5GcoOm6-YUTAonbB-78" target="T-pI5GcoOm6-YUTAonbB-80">
          <mxGeometry relative="1" as="geometry" />
        </mxCell>
        <mxCell id="T-pI5GcoOm6-YUTAonbB-78" value="Insira a nota" style="rounded=0;whiteSpace=wrap;html=1;strokeColor=#432D57;align=center;verticalAlign=middle;fontFamily=Helvetica;fontSize=12;fontColor=#ffffff;fillColor=#76608a;" vertex="1" parent="1">
          <mxGeometry x="450" y="1770" width="120" height="60" as="geometry" />
        </mxCell>
        <mxCell id="T-pI5GcoOm6-YUTAonbB-83" style="edgeStyle=orthogonalEdgeStyle;rounded=0;orthogonalLoop=1;jettySize=auto;html=1;exitX=0;exitY=0.5;exitDx=0;exitDy=0;entryX=0;entryY=0.5;entryDx=0;entryDy=0;strokeColor=#432D57;fontFamily=Helvetica;fontSize=12;fontColor=#1A1A1A;fillColor=#76608a;" edge="1" parent="1" source="T-pI5GcoOm6-YUTAonbB-80" target="T-pI5GcoOm6-YUTAonbB-78">
          <mxGeometry relative="1" as="geometry">
            <mxPoint x="390" y="1940" as="targetPoint" />
            <Array as="points">
              <mxPoint x="380" y="1940" />
              <mxPoint x="380" y="1800" />
            </Array>
          </mxGeometry>
        </mxCell>
        <mxCell id="T-pI5GcoOm6-YUTAonbB-92" style="edgeStyle=orthogonalEdgeStyle;rounded=0;orthogonalLoop=1;jettySize=auto;html=1;exitX=0.5;exitY=1;exitDx=0;exitDy=0;entryX=0.5;entryY=0;entryDx=0;entryDy=0;strokeColor=#432D57;fontFamily=Helvetica;fontSize=12;fontColor=#1A1A1A;fillColor=#76608a;" edge="1" parent="1" source="T-pI5GcoOm6-YUTAonbB-80" target="T-pI5GcoOm6-YUTAonbB-89">
          <mxGeometry relative="1" as="geometry" />
        </mxCell>
        <mxCell id="T-pI5GcoOm6-YUTAonbB-80" value="A nota é &amp;gt;=0 e &amp;lt;= 10?" style="rhombus;whiteSpace=wrap;html=1;rounded=0;strokeColor=#432D57;align=center;verticalAlign=middle;fontFamily=Helvetica;fontSize=12;fontColor=#ffffff;fillColor=#76608a;" vertex="1" parent="1">
          <mxGeometry x="440" y="1880" width="140" height="120" as="geometry" />
        </mxCell>
        <mxCell id="T-pI5GcoOm6-YUTAonbB-95" style="edgeStyle=orthogonalEdgeStyle;rounded=0;orthogonalLoop=1;jettySize=auto;html=1;exitX=0.5;exitY=1;exitDx=0;exitDy=0;strokeColor=#432D57;fontFamily=Helvetica;fontSize=12;fontColor=#1A1A1A;fillColor=#76608a;" edge="1" parent="1" source="T-pI5GcoOm6-YUTAonbB-88" target="T-pI5GcoOm6-YUTAonbB-93">
          <mxGeometry relative="1" as="geometry" />
        </mxCell>
        <mxCell id="T-pI5GcoOm6-YUTAonbB-105" style="edgeStyle=orthogonalEdgeStyle;rounded=0;orthogonalLoop=1;jettySize=auto;html=1;exitX=1;exitY=0.5;exitDx=0;exitDy=0;entryX=0;entryY=0.5;entryDx=0;entryDy=0;strokeColor=#736CA8;fontFamily=Helvetica;fontSize=12;fontColor=#1A1A1A;" edge="1" parent="1" source="T-pI5GcoOm6-YUTAonbB-88" target="T-pI5GcoOm6-YUTAonbB-104">
          <mxGeometry relative="1" as="geometry" />
        </mxCell>
        <mxCell id="T-pI5GcoOm6-YUTAonbB-88" value="Você já registrou 20 notas válidas?" style="rhombus;whiteSpace=wrap;html=1;rounded=0;strokeColor=#432D57;align=center;verticalAlign=middle;fontFamily=Helvetica;fontSize=12;fontColor=#ffffff;fillColor=#76608a;" vertex="1" parent="1">
          <mxGeometry x="440" y="2105" width="140" height="110" as="geometry" />
        </mxCell>
        <mxCell id="T-pI5GcoOm6-YUTAonbB-91" style="edgeStyle=orthogonalEdgeStyle;rounded=0;orthogonalLoop=1;jettySize=auto;html=1;exitX=0.5;exitY=1;exitDx=0;exitDy=0;entryX=0.5;entryY=0;entryDx=0;entryDy=0;strokeColor=#432D57;fontFamily=Helvetica;fontSize=12;fontColor=#1A1A1A;fillColor=#76608a;" edge="1" parent="1" source="T-pI5GcoOm6-YUTAonbB-89" target="T-pI5GcoOm6-YUTAonbB-88">
          <mxGeometry relative="1" as="geometry" />
        </mxCell>
        <mxCell id="T-pI5GcoOm6-YUTAonbB-89" value="Registrar a nota" style="rounded=0;whiteSpace=wrap;html=1;strokeColor=#432D57;align=center;verticalAlign=middle;fontFamily=Helvetica;fontSize=12;fontColor=#ffffff;fillColor=#76608a;" vertex="1" parent="1">
          <mxGeometry x="450" y="2030" width="120" height="60" as="geometry" />
        </mxCell>
        <mxCell id="T-pI5GcoOm6-YUTAonbB-96" style="edgeStyle=orthogonalEdgeStyle;rounded=0;orthogonalLoop=1;jettySize=auto;html=1;exitX=0.5;exitY=1;exitDx=0;exitDy=0;entryX=0.5;entryY=0;entryDx=0;entryDy=0;strokeColor=#432D57;fontFamily=Helvetica;fontSize=12;fontColor=#1A1A1A;fillColor=#76608a;" edge="1" parent="1" source="T-pI5GcoOm6-YUTAonbB-93" target="T-pI5GcoOm6-YUTAonbB-94">
          <mxGeometry relative="1" as="geometry" />
        </mxCell>
        <mxCell id="T-pI5GcoOm6-YUTAonbB-93" value="Calcular a média" style="rounded=0;whiteSpace=wrap;html=1;strokeColor=#432D57;align=center;verticalAlign=middle;fontFamily=Helvetica;fontSize=12;fontColor=#ffffff;fillColor=#76608a;" vertex="1" parent="1">
          <mxGeometry x="450" y="2240" width="120" height="60" as="geometry" />
        </mxCell>
        <mxCell id="T-pI5GcoOm6-YUTAonbB-94" value="Fim" style="ellipse;whiteSpace=wrap;html=1;labelBackgroundColor=none;fontStyle=1;fillColor=#76608a;strokeColor=#432D57;fontColor=#ffffff;" vertex="1" parent="1">
          <mxGeometry x="450" y="2338" width="120" height="80" as="geometry" />
        </mxCell>
        <mxCell id="T-pI5GcoOm6-YUTAonbB-97" value="Sim" style="text;html=1;fontSize=24;fontStyle=1;verticalAlign=middle;align=center;" vertex="1" parent="1">
          <mxGeometry x="530" y="1990" width="100" height="40" as="geometry" />
        </mxCell>
        <mxCell id="T-pI5GcoOm6-YUTAonbB-98" value="Não" style="text;html=1;fontSize=24;fontStyle=1;verticalAlign=middle;align=center;" vertex="1" parent="1">
          <mxGeometry x="380" y="1880" width="100" height="40" as="geometry" />
        </mxCell>
        <mxCell id="T-pI5GcoOm6-YUTAonbB-99" value="Sim" style="text;html=1;fontSize=24;fontStyle=1;verticalAlign=middle;align=center;" vertex="1" parent="1">
          <mxGeometry x="520" y="2200" width="100" height="40" as="geometry" />
        </mxCell>
        <mxCell id="T-pI5GcoOm6-YUTAonbB-100" value="Não" style="text;html=1;fontSize=24;fontStyle=1;verticalAlign=middle;align=center;" vertex="1" parent="1">
          <mxGeometry x="580" y="2120" width="100" height="40" as="geometry" />
        </mxCell>
        <mxCell id="T-pI5GcoOm6-YUTAonbB-101" value="QUESTÃO 08" style="text;strokeColor=none;fillColor=none;html=1;fontSize=24;fontStyle=1;verticalAlign=middle;align=center;fontColor=#1A1A1A;" vertex="1" parent="1">
          <mxGeometry x="620" y="1590" width="100" height="40" as="geometry" />
        </mxCell>
        <mxCell id="T-pI5GcoOm6-YUTAonbB-106" style="edgeStyle=orthogonalEdgeStyle;rounded=0;orthogonalLoop=1;jettySize=auto;html=1;exitX=0.5;exitY=0;exitDx=0;exitDy=0;entryX=1;entryY=0.5;entryDx=0;entryDy=0;strokeColor=#736CA8;fontFamily=Helvetica;fontSize=12;fontColor=#1A1A1A;" edge="1" parent="1" source="T-pI5GcoOm6-YUTAonbB-104" target="T-pI5GcoOm6-YUTAonbB-78">
          <mxGeometry relative="1" as="geometry" />
        </mxCell>
        <mxCell id="T-pI5GcoOm6-YUTAonbB-104" value="Completar os 20 registros" style="rounded=0;whiteSpace=wrap;html=1;strokeColor=#432D57;align=center;verticalAlign=middle;fontFamily=Helvetica;fontSize=12;fontColor=#ffffff;fillColor=#76608a;" vertex="1" parent="1">
          <mxGeometry x="680" y="2130" width="120" height="60" as="geometry" />
        </mxCell>
        <mxCell id="T-pI5GcoOm6-YUTAonbB-111" style="edgeStyle=orthogonalEdgeStyle;rounded=0;orthogonalLoop=1;jettySize=auto;html=1;exitX=0.5;exitY=1;exitDx=0;exitDy=0;strokeColor=#6D1F00;fontFamily=Helvetica;fontSize=12;fontColor=#1A1A1A;fillColor=#a0522d;" edge="1" parent="1" source="T-pI5GcoOm6-YUTAonbB-107" target="T-pI5GcoOm6-YUTAonbB-108">
          <mxGeometry relative="1" as="geometry" />
        </mxCell>
        <mxCell id="T-pI5GcoOm6-YUTAonbB-107" value="Início" style="ellipse;whiteSpace=wrap;html=1;strokeColor=#6D1F00;fillColor=#a0522d;fontColor=#ffffff;" vertex="1" parent="1">
          <mxGeometry x="1590" y="1560" width="120" height="80" as="geometry" />
        </mxCell>
        <mxCell id="T-pI5GcoOm6-YUTAonbB-112" style="edgeStyle=orthogonalEdgeStyle;rounded=0;orthogonalLoop=1;jettySize=auto;html=1;exitX=0.5;exitY=1;exitDx=0;exitDy=0;entryX=0.5;entryY=0;entryDx=0;entryDy=0;strokeColor=#6D1F00;fontFamily=Helvetica;fontSize=12;fontColor=#1A1A1A;fillColor=#a0522d;" edge="1" parent="1" source="T-pI5GcoOm6-YUTAonbB-108" target="T-pI5GcoOm6-YUTAonbB-109">
          <mxGeometry relative="1" as="geometry" />
        </mxCell>
        <mxCell id="T-pI5GcoOm6-YUTAonbB-108" value="Insira a base do retângulo" style="rounded=0;whiteSpace=wrap;html=1;strokeColor=#6D1F00;align=center;verticalAlign=middle;fontFamily=Helvetica;fontSize=12;fontColor=#ffffff;fillColor=#a0522d;" vertex="1" parent="1">
          <mxGeometry x="1590" y="1694" width="120" height="60" as="geometry" />
        </mxCell>
        <mxCell id="T-pI5GcoOm6-YUTAonbB-116" style="edgeStyle=orthogonalEdgeStyle;rounded=0;orthogonalLoop=1;jettySize=auto;html=1;exitX=0.5;exitY=1;exitDx=0;exitDy=0;entryX=0.5;entryY=0;entryDx=0;entryDy=0;strokeColor=#6D1F00;fontFamily=Helvetica;fontSize=12;fontColor=#1A1A1A;fillColor=#a0522d;" edge="1" parent="1" source="T-pI5GcoOm6-YUTAonbB-109" target="T-pI5GcoOm6-YUTAonbB-113">
          <mxGeometry relative="1" as="geometry" />
        </mxCell>
        <mxCell id="T-pI5GcoOm6-YUTAonbB-109" value="Insira a altura do retângulo&amp;nbsp;" style="rounded=0;whiteSpace=wrap;html=1;strokeColor=#6D1F00;align=center;verticalAlign=middle;fontFamily=Helvetica;fontSize=12;fontColor=#ffffff;fillColor=#a0522d;" vertex="1" parent="1">
          <mxGeometry x="1590" y="1780" width="120" height="60" as="geometry" />
        </mxCell>
        <mxCell id="T-pI5GcoOm6-YUTAonbB-117" style="edgeStyle=orthogonalEdgeStyle;rounded=0;orthogonalLoop=1;jettySize=auto;html=1;exitX=0.5;exitY=1;exitDx=0;exitDy=0;entryX=0.5;entryY=0;entryDx=0;entryDy=0;strokeColor=#6D1F00;fontFamily=Helvetica;fontSize=12;fontColor=#1A1A1A;fillColor=#a0522d;" edge="1" parent="1" source="T-pI5GcoOm6-YUTAonbB-113" target="T-pI5GcoOm6-YUTAonbB-114">
          <mxGeometry relative="1" as="geometry" />
        </mxCell>
        <mxCell id="T-pI5GcoOm6-YUTAonbB-113" value="Multiplique: base x altura" style="shape=parallelogram;perimeter=parallelogramPerimeter;whiteSpace=wrap;html=1;fixedSize=1;rounded=0;strokeColor=#6D1F00;align=center;verticalAlign=middle;fontFamily=Helvetica;fontSize=12;fontColor=#ffffff;fillColor=#a0522d;" vertex="1" parent="1">
          <mxGeometry x="1565" y="1870" width="170" height="90" as="geometry" />
        </mxCell>
        <mxCell id="T-pI5GcoOm6-YUTAonbB-118" style="edgeStyle=orthogonalEdgeStyle;rounded=0;orthogonalLoop=1;jettySize=auto;html=1;exitX=0.5;exitY=1;exitDx=0;exitDy=0;strokeColor=#6D1F00;fontFamily=Helvetica;fontSize=12;fontColor=#1A1A1A;fillColor=#a0522d;" edge="1" parent="1" source="T-pI5GcoOm6-YUTAonbB-114" target="T-pI5GcoOm6-YUTAonbB-115">
          <mxGeometry relative="1" as="geometry" />
        </mxCell>
        <mxCell id="T-pI5GcoOm6-YUTAonbB-114" value="Área&amp;nbsp;" style="rounded=0;whiteSpace=wrap;html=1;strokeColor=#6D1F00;align=center;verticalAlign=middle;fontFamily=Helvetica;fontSize=12;fontColor=#ffffff;fillColor=#a0522d;" vertex="1" parent="1">
          <mxGeometry x="1590" y="2000" width="120" height="60" as="geometry" />
        </mxCell>
        <mxCell id="T-pI5GcoOm6-YUTAonbB-115" value="Fim" style="ellipse;whiteSpace=wrap;html=1;labelBackgroundColor=none;fontStyle=1;fillColor=#a0522d;strokeColor=#6D1F00;fontColor=#ffffff;" vertex="1" parent="1">
          <mxGeometry x="1590" y="2100" width="120" height="80" as="geometry" />
        </mxCell>
        <mxCell id="T-pI5GcoOm6-YUTAonbB-119" value="QUESTÃO 01" style="text;strokeColor=none;fillColor=none;html=1;fontSize=24;fontStyle=1;verticalAlign=middle;align=center;fontColor=#1A1A1A;" vertex="1" parent="1">
          <mxGeometry x="1730" y="1480" width="100" height="40" as="geometry" />
        </mxCell>
        <mxCell id="T-pI5GcoOm6-YUTAonbB-130" style="edgeStyle=orthogonalEdgeStyle;rounded=0;orthogonalLoop=1;jettySize=auto;html=1;exitX=0.5;exitY=1;exitDx=0;exitDy=0;entryX=0.5;entryY=0;entryDx=0;entryDy=0;strokeColor=#BD7000;fontFamily=Helvetica;fontSize=12;fontColor=#1A1A1A;fillColor=#f0a30a;" edge="1" parent="1" source="T-pI5GcoOm6-YUTAonbB-120" target="T-pI5GcoOm6-YUTAonbB-122">
          <mxGeometry relative="1" as="geometry" />
        </mxCell>
        <mxCell id="T-pI5GcoOm6-YUTAonbB-120" value="Início" style="ellipse;whiteSpace=wrap;html=1;strokeColor=#BD7000;fillColor=#f0a30a;fontColor=#000000;" vertex="1" parent="1">
          <mxGeometry x="-220" y="990" width="120" height="80" as="geometry" />
        </mxCell>
        <mxCell id="T-pI5GcoOm6-YUTAonbB-121" value="QUESTÃO 02" style="text;strokeColor=none;fillColor=none;html=1;fontSize=24;fontStyle=1;verticalAlign=middle;align=center;fontColor=#1A1A1A;" vertex="1" parent="1">
          <mxGeometry x="-50" y="930" width="100" height="40" as="geometry" />
        </mxCell>
        <mxCell id="T-pI5GcoOm6-YUTAonbB-131" style="edgeStyle=orthogonalEdgeStyle;rounded=0;orthogonalLoop=1;jettySize=auto;html=1;exitX=0.5;exitY=1;exitDx=0;exitDy=0;entryX=0.5;entryY=0;entryDx=0;entryDy=0;strokeColor=#BD7000;fontFamily=Helvetica;fontSize=12;fontColor=#1A1A1A;fillColor=#f0a30a;" edge="1" parent="1" source="T-pI5GcoOm6-YUTAonbB-122" target="T-pI5GcoOm6-YUTAonbB-124">
          <mxGeometry relative="1" as="geometry" />
        </mxCell>
        <mxCell id="T-pI5GcoOm6-YUTAonbB-122" value="Insira o cateto oposto do triângulo (a)" style="rounded=0;whiteSpace=wrap;html=1;strokeColor=#BD7000;align=center;verticalAlign=middle;fontFamily=Helvetica;fontSize=12;fontColor=#000000;fillColor=#f0a30a;" vertex="1" parent="1">
          <mxGeometry x="-220" y="1120" width="120" height="60" as="geometry" />
        </mxCell>
        <mxCell id="T-pI5GcoOm6-YUTAonbB-132" style="edgeStyle=orthogonalEdgeStyle;rounded=0;orthogonalLoop=1;jettySize=auto;html=1;exitX=0.5;exitY=1;exitDx=0;exitDy=0;entryX=0.5;entryY=0;entryDx=0;entryDy=0;strokeColor=#BD7000;fontFamily=Helvetica;fontSize=12;fontColor=#1A1A1A;fillColor=#f0a30a;" edge="1" parent="1" source="T-pI5GcoOm6-YUTAonbB-124" target="T-pI5GcoOm6-YUTAonbB-125">
          <mxGeometry relative="1" as="geometry" />
        </mxCell>
        <mxCell id="T-pI5GcoOm6-YUTAonbB-124" value="Insira o cateto adjacente do triângulo (b)" style="rounded=0;whiteSpace=wrap;html=1;strokeColor=#BD7000;align=center;verticalAlign=middle;fontFamily=Helvetica;fontSize=12;fontColor=#000000;fillColor=#f0a30a;" vertex="1" parent="1">
          <mxGeometry x="-220" y="1210" width="120" height="60" as="geometry" />
        </mxCell>
        <mxCell id="T-pI5GcoOm6-YUTAonbB-133" style="edgeStyle=orthogonalEdgeStyle;rounded=0;orthogonalLoop=1;jettySize=auto;html=1;exitX=0.5;exitY=1;exitDx=0;exitDy=0;strokeColor=#BD7000;fontFamily=Helvetica;fontSize=12;fontColor=#1A1A1A;fillColor=#f0a30a;" edge="1" parent="1" source="T-pI5GcoOm6-YUTAonbB-125" target="T-pI5GcoOm6-YUTAonbB-126">
          <mxGeometry relative="1" as="geometry" />
        </mxCell>
        <mxCell id="T-pI5GcoOm6-YUTAonbB-125" value="Ponha os valores dos catetos ao quadrado (mxm)" style="rounded=0;whiteSpace=wrap;html=1;strokeColor=#BD7000;align=center;verticalAlign=middle;fontFamily=Helvetica;fontSize=12;fontColor=#000000;fillColor=#f0a30a;" vertex="1" parent="1">
          <mxGeometry x="-220" y="1300" width="120" height="60" as="geometry" />
        </mxCell>
        <mxCell id="T-pI5GcoOm6-YUTAonbB-134" style="edgeStyle=orthogonalEdgeStyle;rounded=0;orthogonalLoop=1;jettySize=auto;html=1;exitX=0.5;exitY=1;exitDx=0;exitDy=0;entryX=0.5;entryY=0;entryDx=0;entryDy=0;strokeColor=#BD7000;fontFamily=Helvetica;fontSize=12;fontColor=#1A1A1A;fillColor=#f0a30a;" edge="1" parent="1" source="T-pI5GcoOm6-YUTAonbB-126" target="T-pI5GcoOm6-YUTAonbB-127">
          <mxGeometry relative="1" as="geometry" />
        </mxCell>
        <mxCell id="T-pI5GcoOm6-YUTAonbB-126" value="Some os valores dos catetos ao quadrado" style="rounded=0;whiteSpace=wrap;html=1;strokeColor=#BD7000;align=center;verticalAlign=middle;fontFamily=Helvetica;fontSize=12;fontColor=#000000;fillColor=#f0a30a;" vertex="1" parent="1">
          <mxGeometry x="-220" y="1390" width="120" height="60" as="geometry" />
        </mxCell>
        <mxCell id="T-pI5GcoOm6-YUTAonbB-135" value="" style="edgeStyle=orthogonalEdgeStyle;rounded=0;orthogonalLoop=1;jettySize=auto;html=1;strokeColor=#BD7000;fontFamily=Helvetica;fontSize=12;fontColor=#1A1A1A;fillColor=#f0a30a;" edge="1" parent="1" source="T-pI5GcoOm6-YUTAonbB-127" target="T-pI5GcoOm6-YUTAonbB-129">
          <mxGeometry relative="1" as="geometry" />
        </mxCell>
        <mxCell id="T-pI5GcoOm6-YUTAonbB-127" value="Descubra o valor da raiz quadrada da soma destes valores&amp;nbsp;" style="rounded=0;whiteSpace=wrap;html=1;strokeColor=#BD7000;align=center;verticalAlign=middle;fontFamily=Helvetica;fontSize=12;fontColor=#000000;fillColor=#f0a30a;" vertex="1" parent="1">
          <mxGeometry x="-220" y="1480" width="120" height="60" as="geometry" />
        </mxCell>
        <mxCell id="T-pI5GcoOm6-YUTAonbB-128" value="Fim" style="ellipse;whiteSpace=wrap;html=1;strokeColor=#BD7000;fillColor=#f0a30a;fontColor=#000000;" vertex="1" parent="1">
          <mxGeometry x="-220" y="1660" width="120" height="80" as="geometry" />
        </mxCell>
        <mxCell id="T-pI5GcoOm6-YUTAonbB-136" value="" style="edgeStyle=orthogonalEdgeStyle;rounded=0;orthogonalLoop=1;jettySize=auto;html=1;strokeColor=#BD7000;fontFamily=Helvetica;fontSize=12;fontColor=#1A1A1A;fillColor=#f0a30a;" edge="1" parent="1" source="T-pI5GcoOm6-YUTAonbB-129" target="T-pI5GcoOm6-YUTAonbB-128">
          <mxGeometry relative="1" as="geometry" />
        </mxCell>
        <mxCell id="T-pI5GcoOm6-YUTAonbB-129" value="Resultado" style="rounded=0;whiteSpace=wrap;html=1;strokeColor=#BD7000;align=center;verticalAlign=middle;fontFamily=Helvetica;fontSize=12;fontColor=#000000;fillColor=#f0a30a;" vertex="1" parent="1">
          <mxGeometry x="-220" y="1570" width="120" height="60" as="geometry" />
        </mxCell>
      </root>
    </mxGraphModel>
  </diagram>
</mxfile>
